<?xml version="1.0" encoding="utf-8"?><svg width="254" height="183" viewBox="0 0 254 183" xmlns="http://www.w3.org/2000/svg" xmlns:xlink="http://www.w3.org/1999/xlink"><svg aria-hidden="true" data-prefix="fab" data-icon="bootstrap" class="asvg-inline--fa afa-bootstrap afa-w-14" width="70" height="70" viewBox="0 0 448 512" id="bootstrap" xmlns="http://www.w3.org/2000/svg"><path fill="#9c27b0" d="M292.3 311.93c0 42.41-39.72 41.43-43.92 41.43h-80.89v-81.69h80.89c42.56 0 43.92 31.9 43.92 40.26zm-50.15-73.13c.67 0 38.44 1 38.44-36.31 0-15.52-3.51-35.87-38.44-35.87h-74.66v72.18h74.66zM448 106.67v298.66A74.89 74.89 0 01373.33 480H74.67A74.89 74.89 0 010 405.33V106.67A74.89 74.89 0 0174.67 32h298.66A74.89 74.89 0 01448 106.67zM338.05 317.86c0-21.57-6.65-58.29-49.05-67.35v-.73c22.91-9.78 37.34-28.25 37.34-55.64 0-7 2-64.78-77.6-64.78h-127v261.33c128.23 0 139.87 1.68 163.6-5.71 14.21-4.42 52.71-17.98 52.71-67.12z"/></svg><svg aria-hidden="true" data-prefix="fab" data-icon="css3-alt" class="bsvg-inline--fa bfa-css3-alt bfa-w-12" width="70" height="70" viewBox="0 0 384 512" id="css" x="70" xmlns="http://www.w3.org/2000/svg"><path fill="#9c27b0" d="M0 32l34.9 395.8L192 480l157.1-52.2L384 32H0zm313.1 80l-4.8 47.3L193 208.6l-.3.1h111.5l-12.8 146.6-98.2 28.7-98.8-29.2-6.4-73.9h48.9l3.2 38.3 52.6 13.3 54.7-15.4 3.7-61.6-166.3-.5v-.1l-.2.1-3.6-46.3L193.1 162l6.5-2.7H76.7L70.9 112h242.2z"/></svg><svg width="21.23" height="25.01" viewBox="0 0 21.23 42.01" id="facebook" x="210" y="53" xmlns="http://www.w3.org/2000/svg"><path fill="#FFF" d="M21.23.31V7H17.4a3.55 3.55 0 00-2.85.91 4.26 4.26 0 00-.74 2.72v4.77H21l-1 7.47h-6.19V42H6.27V22.85H0v-7.47h6.27V9.85q0-4.69 2.55-7.28A9 9 0 0115.63 0a39.57 39.57 0 015.6.31z"/></svg><svg aria-hidden="true" data-prefix="fab" data-icon="gulp" class="dsvg-inline--fa dfa-gulp dfa-w-8" width="70" height="70" viewBox="0 0 256 512" id="gulp" y="70" xmlns="http://www.w3.org/2000/svg"><path fill="#9c27b0" d="M209.8 391.1l-14.1 24.6-4.6 80.2c0 8.9-28.3 16.1-63.1 16.1s-63.1-7.2-63.1-16.1l-5.8-79.4-14.9-25.4c41.2 17.3 126 16.7 165.6 0zm-196-253.3l13.6 125.5c5.9-20 20.8-47 40-55.2 6.3-2.7 12.7-2.7 18.7.9 5.2 3 9.6 9.3 10.1 11.8 1.2 6.5-2 9.1-4.5 9.1-3 0-5.3-4.6-6.8-7.3-4.1-7.3-10.3-7.6-16.9-2.8-6.9 5-12.9 13.4-17.1 20.7-5.1 8.8-9.4 18.5-12 28.2-1.5 5.6-2.9 14.6-.6 19.9 1 2.2 2.5 3.6 4.9 3.6 5 0 12.3-6.6 15.8-10.1 4.5-4.5 10.3-11.5 12.5-16l5.2-15.5c2.6-6.8 9.9-5.6 9.9 0 0 10.2-3.7 13.6-10 34.7-5.8 19.5-7.6 25.8-7.6 25.8-.7 2.8-3.4 7.5-6.3 7.5-1.2 0-2.1-.4-2.6-1.2-1-1.4-.9-5.3-.8-6.3.2-3.2 6.3-22.2 7.3-25.2-2 2.2-4.1 4.4-6.4 6.6-5.4 5.1-14.1 11.8-21.5 11.8-3.4 0-5.6-.9-7.7-2.4l7.6 79.6c2 5 39.2 17.1 88.2 17.1 49.1 0 86.3-12.2 88.2-17.1l10.9-94.6c-5.7 5.2-12.3 11.6-19.6 14.8-5.4 2.3-17.4 3.8-17.4-5.7 0-5.2 9.1-14.8 14.4-21.5 1.4-1.7 4.7-5.9 4.7-8.1 0-2.9-6-2.2-11.7 2.5-3.2 2.7-6.2 6.3-8.7 9.7-4.3 6-6.6 11.2-8.5 15.5-6.2 14.2-4.1 8.6-9.1 22-5 13.3-4.2 11.8-5.2 14-.9 1.9-2.2 3.5-4 4.5-1.9 1-4.5.9-6.1-.3-.9-.6-1.3-1.9-1.3-3.7 0-.9.1-1.8.3-2.7 1.5-6.1 7.8-18.1 15-34.3 1.6-3.7 1-2.6.8-2.3-6.2 6-10.9 8.9-14.4 10.5-5.8 2.6-13 2.6-14.5-4.1-.1-.4-.1-.8-.2-1.2-11.8 9.2-24.3 11.7-20-8.1-4.6 8.2-12.6 14.9-22.4 14.9-4.1 0-7.1-1.4-8.6-5.1-2.3-5.5 1.3-14.9 4.6-23.8 1.7-4.5 4-9.9 7.1-16.2 1.6-3.4 4.2-5.4 7.6-4.5.6.2 1.1.4 1.6.7 2.6 1.8 1.6 4.5.3 7.2-3.8 7.5-7.1 13-9.3 20.8-.9 3.3-2 9 1.5 9 2.4 0 4.7-.8 6.9-2.4 4.6-3.4 8.3-8.5 11.1-13.5 2-3.6 4.4-8.3 5.6-12.3.5-1.7 1.1-3.3 1.8-4.8 1.1-2.5 2.6-5.1 5.2-5.1 1.3 0 2.4.5 3.2 1.5 1.7 2.2 1.3 4.5.4 6.9-2 5.6-4.7 10.6-6.9 16.7-1.3 3.5-2.7 8-2.7 11.7 0 3.4 3.7 2.6 6.8 1.2 2.4-1.1 4.8-2.8 6.8-4.5 1.2-4.9.9-3.8 26.4-68.2 1.3-3.3 3.7-4.7 6.1-4.7 1.2 0 2.2.4 3.2 1.1 1.7 1.3 1.7 4.1 1 6.2-.7 1.9-.6 1.3-4.5 10.5-5.2 12.1-8.6 20.8-13.2 31.9-1.9 4.6-7.7 18.9-8.7 22.3-.6 2.2-1.3 5.8 1 5.8 5.4 0 19.3-13.1 23.1-17 .2-.3.5-.4.9-.6.6-1.9 1.2-3.7 1.7-5.5 1.4-3.8 2.7-8.2 5.3-11.3.8-1 1.7-1.6 2.7-1.6 2.8 0 4.2 1.2 4.2 4 0 1.1-.7 5.1-1.1 6.2 1.4-1.5 2.9-3 4.5-4.5 15-13.9 25.7-6.8 25.7.2 0 7.4-8.9 17.7-13.8 23.4-1.6 1.9-4.9 5.4-5 6.4 0 1.3.9 1.8 2.2 1.8 2 0 6.4-3.5 8-4.7 5-3.9 11.8-9.9 16.6-14.1l14.8-136.8c-30.5 17.1-197.6 17.2-228.3.2zm229.7-8.5c0 21-231.2 21-231.2 0 0-8.8 51.8-15.9 115.6-15.9 9 0 17.8.1 26.3.4l12.6-48.7L228.1.6c1.4-1.4 5.8-.2 9.9 3.5s6.6 7.9 5.3 9.3l-.1.1L185.9 74l-10 40.7c39.9 2.6 67.6 8.1 67.6 14.6zm-69.4 4.6c0-.8-.9-1.5-2.5-2.1l-.2.8c0 1.3-5 2.4-11.1 2.4s-11.1-1.1-11.1-2.4c0-.1 0-.2.1-.3l.2-.7c-1.8.6-3 1.4-3 2.3 0 2.1 6.2 3.7 13.7 3.7 7.7.1 13.9-1.6 13.9-3.7z"/></svg><svg aria-hidden="true" data-prefix="fab" data-icon="html5" class="esvg-inline--fa efa-html5 efa-w-12" width="70" height="70" viewBox="0 0 384 512" id="html" x="70" y="70" xmlns="http://www.w3.org/2000/svg"><path class="ehtml-icon" fill="#9c27b0" d="M0 32l34.9 395.8L191.5 480l157.6-52.2L384 32H0zm308.2 127.9H124.4l4.1 49.4h175.6l-13.6 148.4-97.9 27v.3h-1.1l-98.7-27.3-6-75.8h47.7L138 320l53.5 14.5 53.7-14.5 6-62.2H84.3L71.5 112.2h241.1l-4.4 47.7z"/></svg><svg aria-hidden="true" data-prefix="fab" data-icon="js-square" class="fsvg-inline--fa ffa-js-square ffa-w-14" width="70" height="70" viewBox="0 0 448 512" id="javascript" x="140" xmlns="http://www.w3.org/2000/svg"><path fill="#9c27b0" d="M400 32H48C21.5 32 0 53.5 0 80v352c0 26.5 21.5 48 48 48h352c26.5 0 48-21.5 48-48V80c0-26.5-21.5-48-48-48zM243.8 381.4c0 43.6-25.6 63.5-62.9 63.5-33.7 0-53.2-17.4-63.2-38.5l34.3-20.7c6.6 11.7 12.6 21.6 27.1 21.6 13.8 0 22.6-5.4 22.6-26.5V237.7h42.1v143.7zm99.6 63.5c-39.1 0-64.4-18.6-76.7-43l34.3-19.8c9 14.7 20.8 25.6 41.5 25.6 17.4 0 28.6-8.7 28.6-20.8 0-14.4-11.4-19.5-30.7-28l-10.5-4.5c-30.4-12.9-50.5-29.2-50.5-63.5 0-31.6 24.1-55.6 61.6-55.6 26.8 0 46 9.3 59.8 33.7L368 290c-7.2-12.9-15-18-27.1-18-12.3 0-20.1 7.8-20.1 18 0 12.6 7.8 17.7 25.9 25.6l10.5 4.5c35.8 15.3 55.9 31 55.9 66.2 0 37.8-29.8 58.6-69.7 58.6z"/></svg><svg width="51.78" height="42.06" viewBox="0 0 21.23 42.01" id="modal-facebook" y="140" xmlns="http://www.w3.org/2000/svg"><path fill="#FFF" d="M21.23.31V7H17.4a3.55 3.55 0 00-2.85.91 4.26 4.26 0 00-.74 2.72v4.77H21l-1 7.47h-6.19V42H6.27V22.85H0v-7.47h6.27V9.85q0-4.69 2.55-7.28A9 9 0 0115.63 0a39.57 39.57 0 015.6.31z"/></svg><svg id="modal-mail" data-name="Layer 1" width="44" height="28" viewBox="0 0 64 48" x="210" xmlns="http://www.w3.org/2000/svg"><defs><style>.hcls-1{fill:#9c27b0}</style></defs><path class="hcls-1" d="M0 0v8l32 16L64 8V0H0zm0 16v32h64V16L32 32z"/></svg><svg width="51.78" height="42.06" viewBox="0 0 51.78 42.06" id="modal-twitter" x="51.78" y="140" xmlns="http://www.w3.org/2000/svg"><path fill="#FFF" d="M51.78 5a22.23 22.23 0 01-5.32 5.52v1.38a30.15 30.15 0 01-1.25 8.53 30.81 30.81 0 01-3.76 8.13 32.1 32.1 0 01-6.06 6.92 27 27 0 01-8.48 4.8 31 31 0 01-10.62 1.8A29.47 29.47 0 010 37.29a22.71 22.71 0 002.56.13 20.78 20.78 0 0013.17-4.53 10.63 10.63 0 01-9.92-7.36 13.45 13.45 0 002 .16 11 11 0 002.79-.36 10.44 10.44 0 01-6.09-3.67 10.25 10.25 0 01-2.41-6.75v-.13a10.52 10.52 0 004.8 1.34 10.6 10.6 0 01-3.45-3.78 10.34 10.34 0 01-1.28-5.07 10.4 10.4 0 011.45-5.33 30.08 30.08 0 009.71 7.83A29.57 29.57 0 0025.53 13a11.79 11.79 0 01-.26-2.43 10.23 10.23 0 013-7.48 10.64 10.64 0 0115 0l.21.22A20.81 20.81 0 0050.33.8a10.3 10.3 0 01-4.67 5.85A21.14 21.14 0 0051.78 5z"/></svg><svg width="51.78" height="42.06" viewBox="0 0 34.75 42" id="modal-youtube" x="103.56" y="140" xmlns="http://www.w3.org/2000/svg"><path fill="#FFF" d="M22.13 29.15v5q0 1.57-.91 1.57a1.5 1.5 0 01-1.06-.52v-7.11a1.5 1.5 0 011.06-.54q.91 0 .91 1.6zm7.92 0v1.08h-2.1v-1.06q0-1.59 1.06-1.59t1 1.59zM7.42 24h2.5v-2.14h-7.3v2.2h2.46V37.4h2.34V24zm6.75 13.4h2.09V25.82h-2.09v8.86a1.86 1.86 0 01-1.31 1 .48.48 0 01-.49-.47 6.52 6.52 0 010-.82v-8.57h-2.14V35a5.79 5.79 0 00.19 1.71 1.26 1.26 0 001.36.87 3.43 3.43 0 002.39-1.43v1.25zm10.05-3.47v-4.6A8.33 8.33 0 0024 27a1.63 1.63 0 00-1.67-1.31A2.82 2.82 0 0020.16 27v-5.1h-2.08v15.5h2.09v-1.13a2.91 2.91 0 002.18 1.31A1.62 1.62 0 0024 36.27a8.61 8.61 0 00.22-2.35zm7.92-.24v-.3H30a11.6 11.6 0 010 1.43.9.9 0 01-.94.85q-1.08 0-1.08-1.61V32h4.19v-2.41a4.65 4.65 0 00-.66-2.72 3.2 3.2 0 00-5 0 4.52 4.52 0 00-.66 2.72v4.05a4.4 4.4 0 00.66 2.72 3 3 0 002.49 1.2 2.9 2.9 0 003-2.51 10.31 10.31 0 00.09-1.36zM17.89 12.3V7.38q0-1.61-1-1.61t-1 1.61v4.92q0 1.64 1 1.64t1-1.64zm16.85 17.6a40.6 40.6 0 01-.61 8.2 4.45 4.45 0 01-1.36 2.32 4.1 4.1 0 01-2.39 1.08 125.31 125.31 0 01-13 .49 125.31 125.31 0 01-13-.49A4.15 4.15 0 012 40.42 4.28 4.28 0 01.63 38.1 39.76 39.76 0 010 29.9a40.6 40.6 0 01.61-8.2A4.45 4.45 0 012 19.37a4.25 4.25 0 012.41-1.1q4.29-.47 13-.47t13 .47a4.4 4.4 0 013.75 3.42 39.76 39.76 0 01.58 8.21zM11.35 0h2.39l-2.83 9.35v6.35H8.57V9.35a39.68 39.68 0 00-1.43-5Q6.27 2 5.61 0H8.1l1.67 6.16zM20 7.8v4.1a4.59 4.59 0 01-.66 2.76 2.88 2.88 0 01-2.49 1.19 2.9 2.9 0 01-2.46-1.19 4.68 4.68 0 01-.66-2.76V7.8a4.59 4.59 0 01.66-2.74 2.9 2.9 0 012.46-1.19 2.88 2.88 0 012.49 1.19A4.59 4.59 0 0120 7.8zM27.87 4v11.7h-2.13v-1.27a3.37 3.37 0 01-2.41 1.45A1.31 1.31 0 0122 15a6 6 0 01-.19-1.76V4h2.13v8.6a6.14 6.14 0 000 .82.49.49 0 00.47.52 1.87 1.87 0 001.31-1V4h2.16z"/></svg><svg width="51.78" height="25.06" viewBox="0 0 51.78 42.06" id="twitter" x="155.34" y="140" xmlns="http://www.w3.org/2000/svg"><path fill="#FFF" d="M51.78 5a22.23 22.23 0 01-5.32 5.52v1.38a30.15 30.15 0 01-1.25 8.53 30.81 30.81 0 01-3.76 8.13 32.1 32.1 0 01-6.06 6.92 27 27 0 01-8.48 4.8 31 31 0 01-10.62 1.8A29.47 29.47 0 010 37.29a22.71 22.71 0 002.56.13 20.78 20.78 0 0013.17-4.53 10.63 10.63 0 01-9.92-7.36 13.45 13.45 0 002 .16 11 11 0 002.79-.36 10.44 10.44 0 01-6.09-3.67 10.25 10.25 0 01-2.41-6.75v-.13a10.52 10.52 0 004.8 1.34 10.6 10.6 0 01-3.45-3.78 10.34 10.34 0 01-1.28-5.07 10.4 10.4 0 011.45-5.33 30.08 30.08 0 009.71 7.83A29.57 29.57 0 0025.53 13a11.79 11.79 0 01-.26-2.43 10.23 10.23 0 013-7.48 10.64 10.64 0 0115 0l.21.22A20.81 20.81 0 0050.33.8a10.3 10.3 0 01-4.67 5.85A21.14 21.14 0 0051.78 5z"/></svg><svg aria-hidden="true" data-prefix="fab" data-icon="wordpress" class="lsvg-inline--fa lfa-wordpress lfa-w-16" width="70" height="70" viewBox="0 0 512 512" id="wordpress" x="140" y="70" xmlns="http://www.w3.org/2000/svg"><path fill="#9c27b0" d="M61.7 169.4l101.5 278C92.2 413 43.3 340.2 43.3 256c0-30.9 6.6-60.1 18.4-86.6zm337.9 75.9c0-26.3-9.4-44.5-17.5-58.7-10.8-17.5-20.9-32.4-20.9-49.9 0-19.6 14.8-37.8 35.7-37.8.9 0 1.8.1 2.8.2-37.9-34.7-88.3-55.9-143.7-55.9-74.3 0-139.7 38.1-177.8 95.9 5 .2 9.7.3 13.7.3 22.2 0 56.7-2.7 56.7-2.7 11.5-.7 12.8 16.2 1.4 17.5 0 0-11.5 1.3-24.3 2l77.5 230.4L249.8 247l-33.1-90.8c-11.5-.7-22.3-2-22.3-2-11.5-.7-10.1-18.2 1.3-17.5 0 0 35.1 2.7 56 2.7 22.2 0 56.7-2.7 56.7-2.7 11.5-.7 12.8 16.2 1.4 17.5 0 0-11.5 1.3-24.3 2l76.9 228.7 21.2-70.9c9-29.4 16-50.5 16-68.7zm-139.9 29.3l-63.8 185.5c19.1 5.6 39.2 8.7 60.1 8.7 24.8 0 48.5-4.3 70.6-12.1-.6-.9-1.1-1.9-1.5-2.9l-65.4-179.2zm183-120.7c.9 6.8 1.4 14 1.4 21.9 0 21.6-4 45.8-16.2 76.2l-65 187.9C426.2 403 468.7 334.5 468.7 256c0-37-9.4-71.8-26-102.1zM504 256c0 136.8-111.3 248-248 248C119.2 504 8 392.7 8 256 8 119.2 119.2 8 256 8c136.7 0 248 111.2 248 248zm-11.4 0c0-130.5-106.2-236.6-236.6-236.6C125.5 19.4 19.4 125.5 19.4 256S125.6 492.6 256 492.6c130.5 0 236.6-106.1 236.6-236.6z"/></svg><svg width="34.75" height="25" viewBox="0 0 34.75 42" id="youtube" x="210" y="28" xmlns="http://www.w3.org/2000/svg"><path fill="#FFF" d="M22.13 29.15v5q0 1.57-.91 1.57a1.5 1.5 0 01-1.06-.52v-7.11a1.5 1.5 0 011.06-.54q.91 0 .91 1.6zm7.92 0v1.08h-2.1v-1.06q0-1.59 1.06-1.59t1 1.59zM7.42 24h2.5v-2.14h-7.3v2.2h2.46V37.4h2.34V24zm6.75 13.4h2.09V25.82h-2.09v8.86a1.86 1.86 0 01-1.31 1 .48.48 0 01-.49-.47 6.52 6.52 0 010-.82v-8.57h-2.14V35a5.79 5.79 0 00.19 1.71 1.26 1.26 0 001.36.87 3.43 3.43 0 002.39-1.43v1.25zm10.05-3.47v-4.6A8.33 8.33 0 0024 27a1.63 1.63 0 00-1.67-1.31A2.82 2.82 0 0020.16 27v-5.1h-2.08v15.5h2.09v-1.13a2.91 2.91 0 002.18 1.31A1.62 1.62 0 0024 36.27a8.61 8.61 0 00.22-2.35zm7.92-.24v-.3H30a11.6 11.6 0 010 1.43.9.9 0 01-.94.85q-1.08 0-1.08-1.61V32h4.19v-2.41a4.65 4.65 0 00-.66-2.72 3.2 3.2 0 00-5 0 4.52 4.52 0 00-.66 2.72v4.05a4.4 4.4 0 00.66 2.72 3 3 0 002.49 1.2 2.9 2.9 0 003-2.51 10.31 10.31 0 00.09-1.36zM17.89 12.3V7.38q0-1.61-1-1.61t-1 1.61v4.92q0 1.64 1 1.64t1-1.64zm16.85 17.6a40.6 40.6 0 01-.61 8.2 4.45 4.45 0 01-1.36 2.32 4.1 4.1 0 01-2.39 1.08 125.31 125.31 0 01-13 .49 125.31 125.31 0 01-13-.49A4.15 4.15 0 012 40.42 4.28 4.28 0 01.63 38.1 39.76 39.76 0 010 29.9a40.6 40.6 0 01.61-8.2A4.45 4.45 0 012 19.37a4.25 4.25 0 012.41-1.1q4.29-.47 13-.47t13 .47a4.4 4.4 0 013.75 3.42 39.76 39.76 0 01.58 8.21zM11.35 0h2.39l-2.83 9.35v6.35H8.57V9.35a39.68 39.68 0 00-1.43-5Q6.27 2 5.61 0H8.1l1.67 6.16zM20 7.8v4.1a4.59 4.59 0 01-.66 2.76 2.88 2.88 0 01-2.49 1.19 2.9 2.9 0 01-2.46-1.19 4.68 4.68 0 01-.66-2.76V7.8a4.59 4.59 0 01.66-2.74 2.9 2.9 0 012.46-1.19 2.88 2.88 0 012.49 1.19A4.59 4.59 0 0120 7.8zM27.87 4v11.7h-2.13v-1.27a3.37 3.37 0 01-2.41 1.45A1.31 1.31 0 0122 15a6 6 0 01-.19-1.76V4h2.13v8.6a6.14 6.14 0 000 .82.49.49 0 00.47.52 1.87 1.87 0 001.31-1V4h2.16z"/></svg></svg>